<svg width="562" height="384" viewBox="0 0 562 384" fill="none" xmlns="http://www.w3.org/2000/svg">
<path fill-rule="evenodd" clip-rule="evenodd" d="M256 0.970809C253.525 1.18081 245.875 1.83181 239 2.41781C158.198 9.30781 83.353 39.6268 40.5 82.8268C16.619 106.903 2.95597 135.077 1.31297 163.635L0.69397 174.385H281H561.306L560.687 163.635C558.576 126.935 537.291 92.2608 499.383 63.7688C456.217 31.3248 397.731 10.4388 328.85 2.86881C315.402 1.39081 266.187 0.108809 256 0.970809ZM3.63597 193.021L0.99997 195.658V287.067V378.476L3.45497 380.93L5.90897 383.385H281H556.091L558.545 380.93L561 378.476V317.567V256.658L558.364 254.021L555.727 251.385H449H342.273L339.636 254.021L337 256.658V310.521V364.385H281H225V280.021V195.658L222.364 193.021L219.727 190.385H113H6.27297L3.63597 193.021ZM213 286.885V371.385H113H13V286.885V202.385H113H213V286.885ZM549 317.385V371.385H449H349V317.385V263.385H449H549V317.385Z" fill="black"/>
</svg>
