<svg width="32" height="32" viewBox="0 0 32 32" fill="none" xmlns="http://www.w3.org/2000/svg">
<path fill-rule="evenodd" clip-rule="evenodd" d="M17.2125 5.19754H9.19995C6.98995 5.19754 5.19995 6.99004 5.19995 9.19754V15.0775H14.5075C14.6325 11.465 16.405 8.73004 17.9475 6.72504C18.425 6.10254 17.9975 5.19754 17.2125 5.19754ZM21.095 25.06C19.125 23.4975 16.285 20.14 16.285 15.56C16.285 11.3025 18.4675 8.58754 20.1875 6.44504C20.3925 6.19004 20.59 5.94254 20.7775 5.70254C21.27 5.07254 22.52 5.08504 23.0075 5.72004C23.19 5.96254 23.3875 6.21004 23.5925 6.46504C23.8075 6.73754 24.1199 7.12754 24.3475 7.42004C25.9324 9.46004 27.635 12.035 27.635 15.56C27.635 19.9725 24.8425 23.3325 22.83 24.97V26.495C22.83 26.975 22.44 27.3625 21.9625 27.3625C21.485 27.3625 21.095 26.975 21.095 26.495V25.06ZM21.9625 12.8825C22.44 12.8825 22.83 13.27 22.83 13.75V21.6525C22.83 22.13 22.44 22.5175 21.9625 22.5175C21.485 22.5175 21.095 22.13 21.095 21.6525V13.75C21.095 13.27 21.4825 12.8825 21.9625 12.8825ZM5.19995 22.7975V16.81H14.5075C14.84 20.24 16.625 22.9975 18.305 24.8675C18.91 25.54 18.4525 26.7975 17.55 26.7975H9.19995C6.98995 26.7975 5.19995 25.0075 5.19995 22.7975Z" fill="white"/>
</svg>
