<svg width="32" height="32" viewBox="0 0 32 32" fill="none" xmlns="http://www.w3.org/2000/svg">
<g clip-path="url(#clip0_50_2954)">
<path fill-rule="evenodd" clip-rule="evenodd" d="M7.27603 5.67603C6.9067 5.67603 6.6467 5.72003 6.38403 5.78536V5.82936H6.4267C6.6027 6.17736 6.9067 6.41736 7.1227 6.72269C7.29737 7.07069 7.4507 7.41736 7.62403 7.76669C7.64537 7.74403 7.6667 7.72136 7.6667 7.72136C7.97337 7.50536 8.12537 7.15603 8.12537 6.63336C7.9947 6.48003 7.97337 6.32936 7.86403 6.17603C7.73337 5.95869 7.4507 5.85069 7.27603 5.67603Z" fill="white"/>
<path fill-rule="evenodd" clip-rule="evenodd" d="M29.4761 24.5894C27.7334 24.5454 26.3854 24.72 25.2534 25.1987C24.9267 25.3294 24.4054 25.3294 24.3601 25.7427C24.5347 25.916 24.5561 26.1987 24.7094 26.44C24.9707 26.8747 25.4254 27.4614 25.8401 27.768C26.2974 28.116 26.7547 28.4627 27.2334 28.768C28.0814 29.292 29.0401 29.596 29.8654 30.1187C30.3454 30.4227 30.8227 30.8147 31.3041 31.1414C31.5427 31.3147 31.6934 31.5987 31.9987 31.7067V31.64C31.8454 31.4454 31.8027 31.1614 31.6507 30.9427C31.4334 30.7267 31.2147 30.5294 30.9974 30.3134C30.3654 29.464 29.5814 28.7254 28.7347 28.116C28.0374 27.636 26.5134 26.9827 26.2321 26.18C26.2321 26.18 26.2094 26.1574 26.1881 26.136C26.6667 26.092 27.2334 25.9174 27.6907 25.7854C28.4294 25.5907 29.1041 25.6347 29.8654 25.4387C30.2147 25.3507 30.5627 25.2414 30.9121 25.1347V24.9374C30.5187 24.5467 30.2374 24.0227 29.8227 23.6534C28.7134 22.696 27.4934 21.7614 26.2321 20.976C25.5561 20.54 24.6854 20.2587 23.9667 19.888C23.7067 19.7574 23.2721 19.6934 23.1187 19.4734C22.7267 18.9947 22.5081 18.364 22.2254 17.7974C21.5947 16.6014 20.9841 15.2747 20.4414 14.0107C20.0494 13.1627 19.8107 12.3147 19.3321 11.5307C17.0894 7.83069 14.6521 5.58936 10.9094 3.39069C10.1054 2.93336 9.14808 2.73736 8.12541 2.49869C7.58008 2.47469 7.03741 2.43336 6.49341 2.41202C6.14407 2.25869 5.79474 1.84536 5.49074 1.64936C4.24941 0.866689 1.05207 -0.830645 0.137408 1.41069C-0.450592 2.82669 1.00807 4.21869 1.50941 4.93736C1.87874 5.43736 2.35874 6.00402 2.61874 6.56936C2.77074 6.93869 2.81341 7.33069 2.96674 7.72136C3.31474 8.67869 3.64007 9.74536 4.09874 10.6387C4.33741 11.096 4.59874 11.576 4.90274 11.9867C5.07874 12.228 5.38274 12.3347 5.44808 12.728C5.14407 13.1627 5.12007 13.816 4.94674 14.36C4.16407 16.82 4.46808 19.8667 5.57874 21.672C5.92674 22.216 6.75341 23.4134 7.86407 22.956C8.84274 22.5654 8.62541 21.324 8.90808 20.2374C8.97341 19.9747 8.92941 19.8014 9.06008 19.628V19.672C9.36408 20.28 9.66941 20.8667 9.95341 21.4787C10.6281 22.544 11.8027 23.6547 12.7841 24.3934C13.3054 24.7867 13.7187 25.46 14.3721 25.7V25.6347H14.3294C14.1987 25.44 14.0027 25.352 13.8294 25.2C13.4374 24.808 13.0027 24.3294 12.6974 23.8934C11.7841 22.6747 10.9774 21.3254 10.2601 19.932C9.91074 19.256 9.60674 18.516 9.32408 17.8427C9.19341 17.5827 9.19341 17.1894 8.97608 17.06C8.64808 17.5387 8.17074 17.952 7.93208 18.5387C7.51874 19.476 7.47474 20.6294 7.32141 21.8267C7.23474 21.8494 7.27874 21.8267 7.23474 21.8694C6.53874 21.696 6.30008 20.9774 6.03741 20.3694C5.38541 18.8227 5.27474 16.3414 5.84141 14.556C5.99341 14.1 6.64808 12.664 6.38541 12.228C6.25208 11.812 5.81741 11.576 5.57874 11.248C5.29608 10.8347 4.98941 10.3134 4.79607 9.85469C4.27341 8.63602 4.01074 7.28669 3.44674 6.06802C3.18541 5.50136 2.72674 4.91336 2.35874 4.39202C1.94407 3.80402 1.48674 3.39069 1.16007 2.69469C1.05207 2.45469 0.900075 2.06269 1.07341 1.80269C1.11607 1.62802 1.20407 1.56269 1.37874 1.51869C1.66007 1.28002 2.46674 1.58402 2.74808 1.71469C3.55474 2.04002 4.22941 2.34669 4.90274 2.80269C5.20808 3.02136 5.53474 3.43469 5.92541 3.54402H6.38274C7.07874 3.69469 7.86274 3.58669 8.51608 3.78269C9.66808 4.15202 10.7134 4.69602 11.6494 5.28402C14.5001 7.09069 16.8507 9.66002 18.4387 12.728C18.7001 13.228 18.8107 13.6854 19.0494 14.2067C19.5067 15.276 20.0734 16.364 20.5294 17.4067C20.9867 18.4294 21.4227 19.4734 22.0761 20.324C22.4014 20.78 23.7081 21.02 24.2961 21.26C24.7307 21.4547 25.4054 21.6294 25.7974 21.868C26.5374 22.324 27.2761 22.848 27.9734 23.3494C28.3214 23.6107 29.4107 24.1534 29.4761 24.5894Z" fill="white"/>
</g>
<defs>
<clipPath id="clip0_50_2954">
<rect width="32" height="32" fill="white"/>
</clipPath>
</defs>
</svg>
