<svg width="32" height="32" viewBox="0 0 32 32" fill="none" xmlns="http://www.w3.org/2000/svg">
<g clip-path="url(#clip0_45_648)">
<path d="M16.025 31.8125C15.6042 31.8125 15.1771 31.6996 14.8065 31.4862L10.9313 29.1957C10.3534 28.8694 10.6361 28.7564 10.8245 28.6936C11.597 28.4238 11.754 28.3673 12.5768 27.8967C12.6648 27.8465 12.7778 27.8653 12.8657 27.9218L15.8428 29.6852C15.9496 29.7479 16.1003 29.7479 16.2008 29.6852L27.8014 22.9956C27.9082 22.9328 27.9773 22.8073 27.9773 22.6818V9.30258C27.9773 9.1708 27.9082 9.05157 27.7951 8.98254L16.2008 2.29921C16.0941 2.23646 15.9496 2.23646 15.8428 2.29921L4.2548 8.98881C4.14174 9.05157 4.07266 9.17708 4.07266 9.30886V22.6818C4.07266 22.8073 4.14174 22.9328 4.2548 22.9893L7.43287 24.8217C9.16008 25.6814 10.2153 24.6711 10.2153 23.6482V10.4447C10.2153 10.2564 10.366 10.1121 10.5544 10.1121H12.0241C12.2063 10.1121 12.3633 10.2564 12.3633 10.4447V23.6545C12.3633 25.9513 11.1071 27.2691 8.92769 27.2691C8.25565 27.2691 7.72807 27.2691 6.25837 26.5412L3.21847 24.7903C2.46478 24.3573 2 23.5478 2 22.6755V9.30258C2 8.43658 2.46478 7.62077 3.21847 7.18777L14.8065 0.498164C15.5414 0.083986 16.5149 0.083986 17.2434 0.498164L28.844 7.19404C29.5977 7.62705 30.0625 8.43657 30.0625 9.30886V22.6818C30.0625 23.5478 29.5977 24.3573 28.844 24.7966L17.2434 31.4862C16.8729 31.6996 16.4521 31.8125 16.025 31.8125ZM25.3896 18.6279C25.3896 16.124 23.6938 15.4588 20.1326 14.9881C16.5274 14.5112 16.1631 14.2664 16.1631 13.4255C16.1631 12.729 16.4709 11.8002 19.1402 11.8002C21.5206 11.8002 22.4 12.3148 22.7642 13.9213C22.7956 14.0719 22.9338 14.1849 23.0908 14.1849H24.5982C24.6924 14.1849 24.7804 14.1472 24.8432 14.0782C24.906 14.0092 24.9374 13.915 24.9311 13.8209C24.6987 11.0534 22.8585 9.76697 19.1402 9.76697C15.8303 9.76697 13.8581 11.1601 13.8581 13.5008C13.8581 16.0361 15.824 16.739 18.9958 17.0527C22.7956 17.423 23.0908 17.9815 23.0908 18.7283C23.0908 20.021 22.0482 20.5732 19.605 20.5732C16.5337 20.5732 15.8617 19.8014 15.6356 18.2764C15.6104 18.1133 15.4723 17.994 15.3027 17.994H13.8016C13.6132 17.994 13.4687 18.1447 13.4687 18.3266C13.4687 20.2783 14.5301 22.6065 19.6113 22.6065C23.2793 22.6002 25.3896 21.1506 25.3896 18.6279Z" fill="white"/>
</g>
<defs>
<clipPath id="clip0_45_648">
<rect width="32" height="32" fill="white"/>
</clipPath>
</defs>
</svg>
