<svg width="32" height="32" viewBox="0 0 32 32" fill="none" xmlns="http://www.w3.org/2000/svg">
<path d="M26.9401 21.856C23.6481 26.2414 16.6187 24.7614 12.1108 24.9734C12.1108 24.9734 11.3121 25.0187 10.5094 25.1507C10.5094 25.1507 10.8134 25.0214 11.2014 24.8867C14.3667 23.792 15.8628 23.572 17.7867 22.584C21.4001 20.7334 24.9974 16.7 25.7294 12.5107C24.3534 16.54 20.1694 20.008 16.3601 21.416C13.7534 22.3787 9.03742 23.3147 9.03608 23.3147C8.97201 23.2819 8.90845 23.2481 8.84542 23.2134C5.63875 21.6534 5.54542 14.7067 11.3707 12.468C13.9254 11.4867 16.3667 12.0254 19.1281 11.368C22.0721 10.668 25.4827 8.46136 26.8681 5.57602C28.4214 10.1867 30.2881 17.3974 26.9401 21.856ZM26.9961 4.14936C26.6237 5.04235 26.147 5.88822 25.5761 6.66935C24.335 5.39022 22.8496 4.37338 21.2081 3.67916C19.5666 2.98495 17.8024 2.6275 16.0201 2.62802C8.65608 2.62802 2.66675 8.61735 2.66675 15.98C2.66589 17.8166 3.0451 19.6335 3.78054 21.3164C4.51597 22.9993 5.59171 24.5117 6.94008 25.7587L7.23342 26.0174C7.01961 25.8032 6.89961 25.5129 6.89979 25.2103C6.89998 24.9077 7.02034 24.6175 7.23442 24.4036C7.44849 24.1897 7.73874 24.0696 8.04136 24.0696C8.34398 24.0697 8.63419 24.1899 8.84817 24.4039C9.06216 24.6179 9.1824 24.9081 9.18246 25.2107C9.18252 25.5134 9.0624 25.8036 8.84851 26.0177C8.63461 26.2318 8.34445 26.3521 8.04183 26.3523C7.73922 26.3525 7.44891 26.2325 7.23475 26.0187L7.43342 26.1947C9.83395 28.2242 12.8766 29.3364 16.0201 29.3334C23.0574 29.3334 28.8374 23.856 29.3321 16.944C29.6974 13.5587 28.6974 9.26002 26.9961 4.14936Z" fill="white"/>
</svg>
