<svg viewBox="0 0 32 32" fill="none" xmlns="http://www.w3.org/2000/svg">
<path d="M4 6.6667V25.3334C4 26.8067 5.19333 28 6.66667 28H25.3333C26.8067 28 28 26.8067 28 25.3334V6.6667C28 5.19336 26.8067 4.00003 25.3333 4.00003H6.66667C5.19333 4.00003 4 5.19336 4 6.6667ZM18.2213 16.6014H15.3973V25.3334H13.1213V16.6014H10.356V14.6667H18.2213V16.6014ZM18.664 24.8347V22.5C18.664 22.5 19.9387 23.4614 21.4693 23.4614C23 23.4614 22.94 22.4614 22.94 22.324C22.94 20.872 18.6053 20.872 18.6053 17.656C18.6053 13.2814 24.9213 15.008 24.9213 15.008L24.8427 17.0867C24.8427 17.0867 23.784 16.38 22.5867 16.38C21.3907 16.38 20.9587 16.9494 20.9587 17.5574C20.9587 19.1267 25.3333 18.9694 25.3333 22.128C25.3333 26.992 18.664 24.8347 18.664 24.8347Z"/>
</svg>
