<svg width="184" height="93" viewBox="0 0 184 93" fill="none" xmlns="http://www.w3.org/2000/svg">
<rect x="4" y="33" width="80" height="56" rx="8" fill="#DED3FF" stroke="#4A19DC" stroke-width="8"/>
<rect x="100" y="33" width="80" height="56" rx="8" fill="#DED3FF" stroke="#4A19DC" stroke-width="8"/>
<rect x="80" y="57" width="24" height="8" fill="#4A19DC"/>
<path d="M0 13C0 10.7909 1.79086 9 4 9H8V61H0V13Z" fill="#4A19DC"/>
<path d="M176 9H180C182.209 9 184 10.7909 184 13V61H176V9Z" fill="#4A19DC"/>
<path d="M0 13C0 10.7909 1.79086 9 4 9H16C18.2091 9 20 10.7909 20 13C20 15.2091 18.2091 17 16 17H0V13Z" fill="#4A19DC"/>
<path d="M164 13C164 10.7909 165.791 9 168 9H180C182.209 9 184 10.7909 184 13V17H168C165.791 17 164 15.2091 164 13Z" fill="#4A19DC"/>
<line x1="53.8856" y1="46.8856" x2="37.8856" y2="62.8856" stroke="#4A19DC" stroke-width="5.33333"/>
<line x1="37.8856" y1="59.1144" x2="53.8856" y2="75.1144" stroke="#4A19DC" stroke-width="5.33333"/>
<line y1="-2.66667" x2="22.6274" y2="-2.66667" transform="matrix(0.707107 0.707107 0.707107 -0.707107 132 45)" stroke="#4A19DC" stroke-width="5.33333"/>
<line y1="-2.66667" x2="22.6274" y2="-2.66667" transform="matrix(-0.707107 0.707107 0.707107 0.707107 148 61)" stroke="#4A19DC" stroke-width="5.33333"/>
<path d="M25.361 20V6H34.161V8.4H28.001V11.78H33.681V14.18H28.001V20H25.361ZM40.5665 20.28C39.5798 20.28 38.7065 20.0733 37.9465 19.66C37.1998 19.2333 36.6132 18.64 36.1865 17.88C35.7732 17.1067 35.5665 16.2 35.5665 15.16V14.92C35.5665 13.88 35.7732 12.98 36.1865 12.22C36.5998 11.4467 37.1798 10.8533 37.9265 10.44C38.6732 10.0133 39.5398 9.8 40.5265 9.8C41.4998 9.8 42.3465 10.02 43.0665 10.46C43.7865 10.8867 44.3465 11.4867 44.7465 12.26C45.1465 13.02 45.3465 13.9067 45.3465 14.92V15.78H38.1265C38.1532 16.46 38.4065 17.0133 38.8865 17.44C39.3665 17.8667 39.9532 18.08 40.6465 18.08C41.3532 18.08 41.8732 17.9267 42.2065 17.62C42.5398 17.3133 42.7932 16.9733 42.9665 16.6L45.0265 17.68C44.8398 18.0267 44.5665 18.4067 44.2065 18.82C43.8598 19.22 43.3932 19.5667 42.8065 19.86C42.2198 20.14 41.4732 20.28 40.5665 20.28ZM38.1465 13.9H42.7865C42.7332 13.3267 42.4998 12.8667 42.0865 12.52C41.6865 12.1733 41.1598 12 40.5065 12C39.8265 12 39.2865 12.1733 38.8865 12.52C38.4865 12.8667 38.2398 13.3267 38.1465 13.9ZM47.5895 20V6H50.1095V20H47.5895ZM52.902 20V10.08H55.422V20H52.902ZM54.162 8.92C53.7086 8.92 53.322 8.77333 53.002 8.48C52.6953 8.18667 52.542 7.8 52.542 7.32C52.542 6.84 52.6953 6.45333 53.002 6.16C53.322 5.86667 53.7086 5.72 54.162 5.72C54.6286 5.72 55.0153 5.86667 55.322 6.16C55.6286 6.45333 55.782 6.84 55.782 7.32C55.782 7.8 55.6286 8.18667 55.322 8.48C55.0153 8.77333 54.6286 8.92 54.162 8.92ZM58.2145 24V10.08H60.6945V11.28H61.0545C61.2811 10.8933 61.6345 10.5533 62.1145 10.26C62.5945 9.95333 63.2811 9.8 64.1745 9.8C64.9745 9.8 65.7145 10 66.3945 10.4C67.0745 10.7867 67.6211 11.36 68.0345 12.12C68.4478 12.88 68.6545 13.8 68.6545 14.88V15.2C68.6545 16.28 68.4478 17.2 68.0345 17.96C67.6211 18.72 67.0745 19.3 66.3945 19.7C65.7145 20.0867 64.9745 20.28 64.1745 20.28C63.5745 20.28 63.0678 20.2067 62.6545 20.06C62.2545 19.9267 61.9278 19.7533 61.6745 19.54C61.4345 19.3133 61.2411 19.0867 61.0945 18.86H60.7345V24H58.2145ZM63.4145 18.08C64.2011 18.08 64.8478 17.8333 65.3545 17.34C65.8745 16.8333 66.1345 16.1 66.1345 15.14V14.94C66.1345 13.98 65.8745 13.2533 65.3545 12.76C64.8345 12.2533 64.1878 12 63.4145 12C62.6411 12 61.9945 12.2533 61.4745 12.76C60.9545 13.2533 60.6945 13.98 60.6945 14.94V15.14C60.6945 16.1 60.9545 16.8333 61.4745 17.34C61.9945 17.8333 62.6411 18.08 63.4145 18.08ZM75.4884 20.28C74.5017 20.28 73.6284 20.0733 72.8684 19.66C72.1217 19.2333 71.535 18.64 71.1084 17.88C70.695 17.1067 70.4884 16.2 70.4884 15.16V14.92C70.4884 13.88 70.695 12.98 71.1084 12.22C71.5217 11.4467 72.1017 10.8533 72.8484 10.44C73.595 10.0133 74.4617 9.8 75.4484 9.8C76.4217 9.8 77.2684 10.02 77.9884 10.46C78.7084 10.8867 79.2684 11.4867 79.6684 12.26C80.0684 13.02 80.2684 13.9067 80.2684 14.92V15.78H73.0484C73.075 16.46 73.3284 17.0133 73.8084 17.44C74.2884 17.8667 74.875 18.08 75.5684 18.08C76.275 18.08 76.795 17.9267 77.1284 17.62C77.4617 17.3133 77.715 16.9733 77.8884 16.6L79.9484 17.68C79.7617 18.0267 79.4884 18.4067 79.1284 18.82C78.7817 19.22 78.315 19.5667 77.7284 19.86C77.1417 20.14 76.395 20.28 75.4884 20.28ZM73.0684 13.9H77.7084C77.655 13.3267 77.4217 12.8667 77.0084 12.52C76.6084 12.1733 76.0817 12 75.4284 12C74.7484 12 74.2084 12.1733 73.8084 12.52C73.4084 12.8667 73.1617 13.3267 73.0684 13.9ZM87.5095 20V6H96.3095V8.4H90.1495V11.78H95.8295V14.18H90.1495V20H87.5095ZM102.715 20.28C101.728 20.28 100.855 20.0733 100.095 19.66C99.3483 19.2333 98.7616 18.64 98.3349 17.88C97.9216 17.1067 97.7149 16.2 97.7149 15.16V14.92C97.7149 13.88 97.9216 12.98 98.3349 12.22C98.7483 11.4467 99.3283 10.8533 100.075 10.44C100.822 10.0133 101.688 9.8 102.675 9.8C103.648 9.8 104.495 10.02 105.215 10.46C105.935 10.8867 106.495 11.4867 106.895 12.26C107.295 13.02 107.495 13.9067 107.495 14.92V15.78H100.275C100.302 16.46 100.555 17.0133 101.035 17.44C101.515 17.8667 102.102 18.08 102.795 18.08C103.502 18.08 104.022 17.9267 104.355 17.62C104.688 17.3133 104.942 16.9733 105.115 16.6L107.175 17.68C106.988 18.0267 106.715 18.4067 106.355 18.82C106.008 19.22 105.542 19.5667 104.955 19.86C104.368 20.14 103.622 20.28 102.715 20.28ZM100.295 13.9H104.935C104.882 13.3267 104.648 12.8667 104.235 12.52C103.835 12.1733 103.308 12 102.655 12C101.975 12 101.435 12.1733 101.035 12.52C100.635 12.8667 100.388 13.3267 100.295 13.9ZM109.738 20V10.08H112.218V11.2H112.578C112.725 10.8 112.965 10.5067 113.298 10.32C113.645 10.1333 114.045 10.04 114.498 10.04H115.698V12.28H114.458C113.818 12.28 113.291 12.4533 112.878 12.8C112.465 13.1333 112.258 13.6533 112.258 14.36V20H109.738ZM117.668 20V10.08H120.148V11.2H120.508C120.654 10.8 120.894 10.5067 121.228 10.32C121.574 10.1333 121.974 10.04 122.428 10.04H123.628V12.28H122.388C121.748 12.28 121.221 12.4533 120.808 12.8C120.394 13.1333 120.188 13.6533 120.188 14.36V20H117.668ZM129.766 20.28C128.779 20.28 127.906 20.0733 127.146 19.66C126.399 19.2333 125.812 18.64 125.386 17.88C124.972 17.1067 124.766 16.2 124.766 15.16V14.92C124.766 13.88 124.972 12.98 125.386 12.22C125.799 11.4467 126.379 10.8533 127.126 10.44C127.872 10.0133 128.739 9.8 129.726 9.8C130.699 9.8 131.546 10.02 132.266 10.46C132.986 10.8867 133.546 11.4867 133.946 12.26C134.346 13.02 134.546 13.9067 134.546 14.92V15.78H127.326C127.352 16.46 127.606 17.0133 128.086 17.44C128.566 17.8667 129.152 18.08 129.846 18.08C130.552 18.08 131.072 17.9267 131.406 17.62C131.739 17.3133 131.992 16.9733 132.166 16.6L134.226 17.68C134.039 18.0267 133.766 18.4067 133.406 18.82C133.059 19.22 132.592 19.5667 132.006 19.86C131.419 20.14 130.672 20.28 129.766 20.28ZM127.346 13.9H131.986C131.932 13.3267 131.699 12.8667 131.286 12.52C130.886 12.1733 130.359 12 129.706 12C129.026 12 128.486 12.1733 128.086 12.52C127.686 12.8667 127.439 13.3267 127.346 13.9ZM136.789 20V10.08H139.309V20H136.789ZM138.049 8.92C137.595 8.92 137.209 8.77333 136.889 8.48C136.582 8.18667 136.429 7.8 136.429 7.32C136.429 6.84 136.582 6.45333 136.889 6.16C137.209 5.86667 137.595 5.72 138.049 5.72C138.515 5.72 138.902 5.86667 139.209 6.16C139.515 6.45333 139.669 6.84 139.669 7.32C139.669 7.8 139.515 8.18667 139.209 8.48C138.902 8.77333 138.515 8.92 138.049 8.92ZM142.101 20V10.08H144.581V11.2H144.941C145.088 10.8 145.328 10.5067 145.661 10.32C146.008 10.1333 146.408 10.04 146.861 10.04H148.061V12.28H146.821C146.181 12.28 145.655 12.4533 145.241 12.8C144.828 13.1333 144.621 13.6533 144.621 14.36V20H142.101ZM152.876 20.28C152.17 20.28 151.536 20.16 150.976 19.92C150.416 19.6667 149.97 19.3067 149.636 18.84C149.316 18.36 149.156 17.78 149.156 17.1C149.156 16.42 149.316 15.8533 149.636 15.4C149.97 14.9333 150.423 14.5867 150.996 14.36C151.583 14.12 152.25 14 152.996 14H155.716V13.44C155.716 12.9733 155.57 12.5933 155.276 12.3C154.983 11.9933 154.516 11.84 153.876 11.84C153.25 11.84 152.783 11.9867 152.476 12.28C152.17 12.56 151.97 12.9267 151.876 13.38L149.556 12.6C149.716 12.0933 149.97 11.6333 150.316 11.22C150.676 10.7933 151.15 10.4533 151.736 10.2C152.336 9.93333 153.063 9.8 153.916 9.8C155.223 9.8 156.256 10.1267 157.016 10.78C157.776 11.4333 158.156 12.38 158.156 13.62V17.32C158.156 17.72 158.343 17.92 158.716 17.92H159.516V20H157.836C157.343 20 156.936 19.88 156.616 19.64C156.296 19.4 156.136 19.08 156.136 18.68V18.66H155.756C155.703 18.82 155.583 19.0333 155.396 19.3C155.21 19.5533 154.916 19.78 154.516 19.98C154.116 20.18 153.57 20.28 152.876 20.28ZM153.316 18.24C154.023 18.24 154.596 18.0467 155.036 17.66C155.49 17.26 155.716 16.7333 155.716 16.08V15.88H153.176C152.71 15.88 152.343 15.98 152.076 16.18C151.81 16.38 151.676 16.66 151.676 17.02C151.676 17.38 151.816 17.6733 152.096 17.9C152.376 18.1267 152.783 18.24 153.316 18.24Z" fill="#4A19DC"/>
</svg>
