<svg xmlns="http://www.w3.org/2000/svg" width="562" height="475" fill="none"><path fill="#2B17DE" fill-rule="evenodd" d="M256 .27837c-2.475.21-10.125.861-17 1.447-80.802 6.89-155.647 37.20903-198.5 80.40903C16.619 106.21 2.95597 134.384 1.31297 162.942l-.619 10.75H561.306l-.619-10.75c-2.111-36.7-23.396-71.3736-61.304-99.8656C456.217 30.6324 397.731 9.74637 328.85 2.17637c-13.448-1.478-62.663-2.76-72.85-1.898ZM3.63597 192.328l-2.636 2.637v182.818l2.455 2.454 2.454 2.455H556.091l2.454-2.455 2.455-2.454V255.965l-2.636-2.637-2.637-2.636H342.273l-2.637 2.636-2.636 2.637v107.727H225V194.965l-2.636-2.637-2.637-2.636H6.27297l-2.637 2.636ZM213 286.192v84.5H13v-169h200v84.5Zm336 30.5v54H349v-108h200v54ZM156.655 417.521c-3.307 3.653-1.457 8.171 3.345 8.171 5.086 0 6.911-5.548 2.777-8.443-2.879-2.017-4.1-1.963-6.122.272Zm268.226.066c-2.015 1.632-2.201 2.293-1.337 4.75.877 2.493 1.508 2.855 4.98 2.855 3.804 0 3.99-.149 4.305-3.456.231-2.427-.198-3.841-1.441-4.75-2.401-1.755-3.751-1.631-6.507.601ZM68 439.192v22.5h8v-19h18v-7H76v-11h20v-8H68v22.5Zm71 0v22.5h8v-45h-8v22.5Zm128-.028v22.528h8v-19h18v-7h-18v-11H295.121l-.311-3.75-.31-3.75-13.75-.278-13.75-.278v22.528Zm-155.058-9.555c-7.72 2.437-11.275 7.511-11.275 16.093 0 9.72 4.882 15.557 13.908 16.626 3.992.473 5.915.155 9.202-1.522 3.562-1.818 6.223-4.604 6.223-6.516 0-.294-1.228-1.178-2.73-1.964-2.531-1.327-2.89-1.257-4.952.968-1.365 1.473-3.346 2.398-5.135 2.398-3.549 0-8.183-3.439-8.183-6.073 0-1.792.813-1.927 11.628-1.927h11.628l-.679-4.245c-1.304-8.153-5.954-12.99-13.577-14.125-1.925-.286-4.651-.157-6.058.287Zm76.33-.067c-1.225.357-3.143 1.438-4.261 2.4-2.596 2.234-3.011 2.2-3.011-.25 0-1.667-.667-2-4-2h-4v45h8v-16.94l3.64 2.47c4.284 2.908 8.528 3.136 13.34.718 5.464-2.745 8.02-7.418 8.02-14.661 0-8.023-2.288-12.39-8.036-15.337-4.522-2.319-5.875-2.514-9.692-1.4Zm34.228.614c-11.011 3.967-14.074 19.197-5.571 27.7 6.105 6.106 15.093 6.39 21.592.683 1.914-1.68 3.479-3.403 3.479-3.829 0-.427-1.332-1.327-2.959-2.001-2.595-1.075-3.29-.966-5.635.878-3.152 2.48-5.471 2.64-9.329.645-2.662-1.377-4.528-4.756-3.302-5.982.307-.307 5.433-.558 11.392-.558H243v-3.599c0-10.554-10.354-17.593-20.5-13.937Zm87 .006c-4.948 1.791-8.094 5.308-9.535 10.659-3.926 14.583 9.872 26.646 22.825 19.954 3.18-1.643 7.017-5.787 6.029-6.512-4.85-3.558-5.073-3.589-7.441-1.034-4.253 4.589-13.312 2.022-13.363-3.787-.013-1.567 1.198-1.75 11.573-1.75h11.588l-.694-4.25c-1.796-11.007-11.061-16.871-20.982-13.28Zm87.685-.511c-13.352 3.283-15.379 24.896-2.903 30.936 7.068 3.421 13.557 2.516 18.968-2.646 3.45-3.291 3.432-3.724-.209-5.232-2.595-1.075-3.29-.966-5.635.878-3.604 2.836-7.904 2.698-10.951-.35-4.84-4.84-3.673-5.545 9.175-5.545h11.63l-.52-4.614c-1.108-9.828-9.832-15.818-19.555-13.427Zm76.315.523c-3.892 1.401-8.838 6.162-7.929 7.633.249.402 1.767 1.02 3.375 1.373 2.201.484 3.434.132 4.989-1.423 3.822-3.822 11.065-1.854 11.065 3.006 0 1.709-.748 1.929-6.55 1.929-7.02 0-11.696 1.723-13.42 4.945-1.9 3.549-1.18 7.856 1.888 11.289 2.625 2.939 3.47 3.266 8.419 3.266 4.315 0 6.014-.481 7.877-2.231 2.36-2.217 2.384-2.219 4.07-.25 1.168 1.363 2.947 1.981 5.706 1.981 3.916 0 4.01-.082 4.01-3.5 0-2.833-.381-3.5-2-3.5-1.823 0-2-.667-2-7.532 0-8.452-1.677-13.578-5.166-15.794-3.619-2.298-9.829-2.814-14.334-1.192ZM156 445.692v16h8v-32h-8v16Zm182 0v16h8v-10.309c0-12.003.743-13.579 6.785-14.389 4.007-.537 4.215-.731 4.215-3.934 0-3.04-.279-3.368-2.865-3.368-1.576 0-4 .893-5.388 1.984-2.515 1.979-2.523 1.979-3.041 0-.396-1.514-1.369-1.984-4.112-1.984H338v16Zm25 0v16h8v-10.045c0-9.333.174-10.22 2.455-12.5 1.531-1.532 3.599-2.455 5.5-2.455 2.813 0 3.045-.266 3.045-3.5 0-3.186-.257-3.5-2.865-3.5-1.576 0-4.051.933-5.5 2.073L371 433.837v-2.072c0-1.752-.62-2.073-4-2.073h-4v16Zm61.667-15.333c-.367.366-.667 7.566-.667 16v15.333h8v-32h-3.333c-1.834 0-3.634.3-4 .667Zm17 0c-.367.366-.667 7.566-.667 16v15.333h8v-10.045c0-9.333.174-10.22 2.455-12.5 1.531-1.532 3.599-2.455 5.5-2.455 2.813 0 3.045-.266 3.045-3.5 0-3.222-.238-3.5-3-3.5-1.667 0-3.889.889-5 2-1.1 1.1-2.225 2-2.5 2-.275 0-.5-.9-.5-2 0-1.6-.667-2-3.333-2-1.834 0-3.634.3-4 .667Zm-319.923 7.536c.691.573 1.256 1.887 1.256 2.919 0 1.658-.819 1.878-7 1.878-4.942 0-6.995-.368-6.985-1.25.058-4.733 8.475-7.078 12.729-3.547Zm74.006 1.045c1.718 1.604 2.25 3.215 2.25 6.816 0 6.751-2.418 9.436-8.5 9.436-5.894 0-8.5-2.725-8.5-8.888 0-9.25 8.293-13.39 14.75-7.364Zm35.566-2.098c2.472 1.301 3.646 2.773 3.669 4.6.01.882-2.043 1.25-6.985 1.25-6.295 0-7-.198-7-1.968 0-1.119 1.187-2.612 2.75-3.46 3.367-1.827 4.751-1.904 7.566-.422Zm87 0c2.472 1.301 3.646 2.773 3.669 4.6.01.882-2.043 1.25-6.985 1.25s-6.995-.368-6.985-1.25c.025-2.025 1.374-3.584 4.013-4.637 3.284-1.31 3.734-1.308 6.288.037Zm89.055 1.812c2.874 2.819 1.134 4.038-5.763 4.038-7.069 0-7.976-.444-6.507-3.188 2.165-4.047 8.56-4.49 12.27-.85ZM485 450.192c0 3.147-3.882 5.626-8.305 5.305-3.555-.258-4.247-.669-4.532-2.692-.447-3.157 1.26-4.079 7.587-4.098 4.007-.011 5.25.34 5.25 1.485Z" clip-rule="evenodd"/></svg>