<svg width="562" height="475" viewBox="0 0 562 475" fill="none" xmlns="http://www.w3.org/2000/svg">
<path fill-rule="evenodd" clip-rule="evenodd" d="M256 0.585983C253.525 0.795983 245.875 1.44698 239 2.03298C158.198 8.92298 83.353 39.242 40.5 82.442C16.619 106.518 2.95597 134.692 1.31297 163.25L0.69397 174H281H561.306L560.687 163.25C558.576 126.55 537.291 91.876 499.383 63.384C456.217 30.94 397.731 10.054 328.85 2.48398C315.402 1.00598 266.187 -0.276017 256 0.585983ZM3.63597 192.636L0.99997 195.273V286.682V378.091L3.45497 380.545L5.90897 383H281H556.091L558.545 380.545L561 378.091V317.182V256.273L558.364 253.636L555.727 251H449H342.273L339.636 253.636L337 256.273V310.136V364H281H225V279.636V195.273L222.364 192.636L219.727 190H113H6.27297L3.63597 192.636ZM213 286.5V371H113H13V286.5V202H113H213V286.5ZM549 317V371H449H349V317V263H449H549V317ZM156.655 417.829C153.348 421.482 155.198 426 160 426C165.086 426 166.911 420.452 162.777 417.557C159.898 415.54 158.677 415.594 156.655 417.829ZM424.881 417.895C422.866 419.527 422.68 420.188 423.544 422.645C424.421 425.138 425.052 425.5 428.524 425.5C432.328 425.5 432.514 425.351 432.829 422.044C433.06 419.617 432.631 418.203 431.388 417.294C428.987 415.539 427.637 415.663 424.881 417.895ZM68 439.5V462H72H76V452.5V443H85H94V439.5V436H85H76V430.5V425H86H96V421V417H82H68V439.5ZM139 439.5V462H143H147V439.5V417H143H139V439.5ZM267 439.472V462H271H275V452.5V443H284H293V439.5V436H284H275V430.5V425H285.06H295.121L294.81 421.25L294.5 417.5L280.75 417.222L267 416.944V439.472ZM111.942 429.917C104.222 432.354 100.667 437.428 100.667 446.01C100.667 455.73 105.549 461.567 114.575 462.636C118.567 463.109 120.49 462.791 123.777 461.114C127.339 459.296 130 456.51 130 454.598C130 454.304 128.772 453.42 127.27 452.634C124.739 451.307 124.38 451.377 122.318 453.602C120.953 455.075 118.972 456 117.183 456C113.634 456 109 452.561 109 449.927C109 448.135 109.813 448 120.628 448H132.256L131.577 443.755C130.273 435.602 125.623 430.765 118 429.63C116.075 429.344 113.349 429.473 111.942 429.917ZM188.272 429.85C187.047 430.207 185.129 431.288 184.011 432.25C181.415 434.484 181 434.45 181 432C181 430.333 180.333 430 177 430H173V452.5V475H177H181V466.53V458.06L184.64 460.53C188.924 463.438 193.168 463.666 197.98 461.248C203.444 458.503 206 453.83 206 446.587C206 438.564 203.712 434.197 197.964 431.25C193.442 428.931 192.089 428.736 188.272 429.85ZM222.5 430.464C211.489 434.431 208.426 449.661 216.929 458.164C223.034 464.27 232.022 464.554 238.521 458.847C240.435 457.167 242 455.444 242 455.018C242 454.591 240.668 453.691 239.041 453.017C236.446 451.942 235.751 452.051 233.406 453.895C230.254 456.375 227.935 456.535 224.077 454.54C221.415 453.163 219.549 449.784 220.775 448.558C221.082 448.251 226.208 448 232.167 448H243V444.401C243 433.847 232.646 426.808 222.5 430.464ZM309.5 430.47C304.552 432.261 301.406 435.778 299.965 441.129C296.039 455.712 309.837 467.775 322.79 461.083C325.97 459.44 329.807 455.296 328.819 454.571C323.969 451.013 323.746 450.982 321.378 453.537C317.125 458.126 308.066 455.559 308.015 449.75C308.002 448.183 309.213 448 319.588 448H331.176L330.482 443.75C328.686 432.743 319.421 426.879 309.5 430.47ZM397.185 429.959C383.833 433.242 381.806 454.855 394.282 460.895C401.35 464.316 407.839 463.411 413.25 458.249C416.7 454.958 416.682 454.525 413.041 453.017C410.446 451.942 409.751 452.051 407.406 453.895C403.802 456.731 399.502 456.593 396.455 453.545C391.615 448.705 392.782 448 405.63 448H417.26L416.74 443.386C415.632 433.558 406.908 427.568 397.185 429.959ZM473.5 430.482C469.608 431.883 464.662 436.644 465.571 438.115C465.82 438.517 467.338 439.135 468.946 439.488C471.147 439.972 472.38 439.62 473.935 438.065C477.757 434.243 485 436.211 485 441.071C485 442.78 484.252 443 478.45 443C471.43 443 466.754 444.723 465.03 447.945C463.13 451.494 463.85 455.801 466.918 459.234C469.543 462.173 470.388 462.5 475.337 462.5C479.652 462.5 481.351 462.019 483.214 460.269C485.574 458.052 485.598 458.05 487.284 460.019C488.452 461.382 490.231 462 492.99 462C496.906 462 497 461.918 497 458.5C497 455.667 496.619 455 495 455C493.177 455 493 454.333 493 447.468C493 439.016 491.323 433.89 487.834 431.674C484.215 429.376 478.005 428.86 473.5 430.482ZM156 446V462H160H164V446V430H160H156V446ZM338 446V462H342H346V451.691C346 439.688 346.743 438.112 352.785 437.302C356.792 436.765 357 436.571 357 433.368C357 430.328 356.721 430 354.135 430C352.559 430 350.135 430.893 348.747 431.984C346.232 433.963 346.224 433.963 345.706 431.984C345.31 430.47 344.337 430 341.594 430H338V446ZM363 446V462H367H371V451.955C371 442.622 371.174 441.735 373.455 439.455C374.986 437.923 377.054 437 378.955 437C381.768 437 382 436.734 382 433.5C382 430.314 381.743 430 379.135 430C377.559 430 375.084 430.933 373.635 432.073L371 434.145V432.073C371 430.321 370.38 430 367 430H363V446ZM424.667 430.667C424.3 431.033 424 438.233 424 446.667V462H428H432V446V430H428.667C426.833 430 425.033 430.3 424.667 430.667ZM441.667 430.667C441.3 431.033 441 438.233 441 446.667V462H445H449V451.955C449 442.622 449.174 441.735 451.455 439.455C452.986 437.923 455.054 437 456.955 437C459.768 437 460 436.734 460 433.5C460 430.278 459.762 430 457 430C455.333 430 453.111 430.889 452 432C450.9 433.1 449.775 434 449.5 434C449.225 434 449 433.1 449 432C449 430.4 448.333 430 445.667 430C443.833 430 442.033 430.3 441.667 430.667ZM121.744 438.203C122.435 438.776 123 440.09 123 441.122C123 442.78 122.181 443 116 443C111.058 443 109.005 442.632 109.015 441.75C109.073 437.017 117.49 434.672 121.744 438.203ZM195.75 439.248C197.468 440.852 198 442.463 198 446.064C198 452.815 195.582 455.5 189.5 455.5C183.606 455.5 181 452.775 181 446.612C181 437.362 189.293 433.222 195.75 439.248ZM231.316 437.15C233.788 438.451 234.962 439.923 234.985 441.75C234.995 442.632 232.942 443 228 443C221.705 443 221 442.802 221 441.032C221 439.913 222.187 438.42 223.75 437.572C227.117 435.745 228.501 435.668 231.316 437.15ZM318.316 437.15C320.788 438.451 321.962 439.923 321.985 441.75C321.995 442.632 319.942 443 315 443C310.058 443 308.005 442.632 308.015 441.75C308.04 439.725 309.389 438.166 312.028 437.113C315.312 435.803 315.762 435.805 318.316 437.15ZM407.371 438.962C410.245 441.781 408.505 443 401.608 443C394.539 443 393.632 442.556 395.101 439.812C397.266 435.765 403.661 435.322 407.371 438.962ZM485 450.5C485 453.647 481.118 456.126 476.695 455.805C473.14 455.547 472.448 455.136 472.163 453.113C471.716 449.956 473.423 449.034 479.75 449.015C483.757 449.004 485 449.355 485 450.5Z" fill="black"/>
</svg>
