<svg xmlns="http://www.w3.org/2000/svg" width="562" height="384" fill="none"><path fill="#2B17DE" fill-rule="evenodd" d="M256 .6632c-2.475.21-10.125.86099-17 1.44699-80.802 6.89-155.647 37.20901-198.5 80.40901C16.619 106.595 2.95597 134.769 1.31297 163.327l-.619 10.75H561.306l-.619-10.75c-2.111-36.7-23.396-71.3738-61.304-99.8658-43.166-32.444-101.652-53.33-170.533-60.90001-13.448-1.478-62.663-2.76-72.85-1.898ZM3.63597 192.713l-2.636 2.637v182.818l2.455 2.454 2.454 2.455H556.091l2.454-2.455 2.455-2.454V256.35l-2.636-2.637-2.637-2.636H342.273l-2.637 2.636L337 256.35v107.727H225V195.35l-2.636-2.637-2.637-2.636H6.27297l-2.637 2.636ZM213 286.577v84.5H13v-169h200v84.5Zm336 30.5v54H349v-108h200v54Z" clip-rule="evenodd"/></svg>