<svg viewBox="0 0 1280 128" fill="none" xmlns="http://www.w3.org/2000/svg">
<path opacity="0.4" d="M1280 128H1233.1C1233.1 111.132 1226.4 94.9556 1214.47 83.0283C1202.54 71.101 1186.37 64.4004 1169.5 64.4004C1152.63 64.4004 1136.46 71.101 1124.53 83.0283C1112.6 94.9556 1105.9 111.132 1105.9 128H1021.1C1021.1 111.132 1014.4 94.9556 1002.47 83.0283C990.544 71.101 974.368 64.4004 957.5 64.4004C940.632 64.4004 924.456 71.101 912.528 83.0283C900.601 94.9556 893.9 111.132 893.9 128H809.1C809.1 111.132 802.399 94.9556 790.472 83.0283C778.544 71.101 762.368 64.4004 745.5 64.4004C728.632 64.4004 712.456 71.101 700.528 83.0283C688.601 94.9556 681.9 111.132 681.9 128H597.1C597.1 111.132 590.399 94.9556 578.472 83.0283C566.544 71.101 550.368 64.4004 533.5 64.4004C516.632 64.4004 500.456 71.101 488.528 83.0283C476.601 94.9556 469.9 111.132 469.9 128H385.1C385.1 111.132 378.399 94.9556 366.472 83.0283C354.544 71.101 338.368 64.4004 321.5 64.4004C304.632 64.4004 288.456 71.101 276.528 83.0283C264.601 94.9556 257.9 111.132 257.9 128H173.1C173.1 111.132 166.399 94.9556 154.472 83.0283C142.544 71.101 126.368 64.4004 109.5 64.4004C92.6322 64.4004 76.4556 71.101 64.5283 83.0283C52.601 94.9556 45.9004 111.132 45.9004 128H0.5V64H0V0H1280V128Z" fill="url(#paint0_linear_303_4630)"/>
<defs>
<linearGradient id="paint0_linear_303_4630" x1="640" y1="22" x2="640" y2="128" gradientUnits="userSpaceOnUse">
<stop stop-color="rgb(var(--color-main)"/>
<stop offset="1" stop-color="rgb(var(--color-bg)"/>
</linearGradient>
</defs>
</svg>
