<svg viewBox="0 0 241 160" fill="none" xmlns="http://www.w3.org/2000/svg">
<rect opacity="0.6" x="1" y="1" width="158" height="158" rx="7" fill="rgb(var(--color-main)" stroke="rgb(var(--color-main-02))" stroke-width="2"/>
<path opacity="0.6" d="M141 66C141 70.4183 144.582 74 149 74H275C278.314 74 281 76.6863 281 80C281 83.3137 278.314 86 275 86H149C144.582 86 141 89.5817 141 94V138C141 142.418 137.418 146 133 146H56C53.7909 146 52 144.209 52 142C52 139.791 53.7909 138 56 138H64C65.6569 138 67 136.657 67 135C67 133.343 65.6569 132 64 132H58C56.8954 132 56 131.105 56 130C56 128.895 56.8954 128 58 128H66C68.7614 128 71 130.239 71 133C71 135.761 73.2386 138 76 138H125C129.418 138 133 134.418 133 130V126C133 121.582 129.418 118 125 118H77C74.7909 118 73 116.209 73 114C73 111.791 74.7909 110 77 110H125C129.418 110 133 106.418 133 102V94C133 89.5817 129.418 86 125 86H102C97.5817 86 94 89.5817 94 94C94 98.4183 90.4183 102 86 102H54C52.8954 102 52 101.105 52 100C52 98.8954 52.8954 98 54 98H84C87.3137 98 90 95.3137 90 92C90 88.6863 87.3137 86 84 86H56C53.7909 86 52 84.2091 52 82C52 79.7909 53.7909 78 56 78H60C62.2091 78 64 76.2091 64 74C64 71.7909 62.2091 70 60 70H55C53.8954 70 53 69.1046 53 68C53 66.8954 53.8954 66 55 66H62C65.3137 66 68 68.6863 68 72C68 75.3137 70.6863 78 74 78H125C129.418 78 133 74.4183 133 70V66C133 61.5817 129.418 58 125 58H57C54.7909 58 53 56.2091 53 54C53 51.7909 54.7909 50 57 50H125C129.418 50 133 46.4183 133 42V30C133 25.5817 129.418 22 125 22H124C119.582 22 116 25.5817 116 30C116 34.4183 112.418 38 108 38H62C60.8954 38 60 37.1046 60 36C60 34.8954 60.8954 34 62 34H75.5C77.433 34 79 32.433 79 30.5C79 28.567 77.433 27 75.5 27H55C53.8954 27 53 26.1046 53 25C53 23.8954 53.8954 23 55 23H77.5C80.5376 23 83 25.4624 83 28.5C83 31.5376 85.4624 34 88.5 34H106C109.314 34 112 31.3137 112 28C112 24.6863 109.314 22 106 22H89C86.7909 22 85 20.2091 85 18C85 15.7909 86.7909 14 89 14H133C137.418 14 141 17.5817 141 22V66Z" fill="rgb(var(--color-main)"/>
</svg>
